#!OML:ASF F:\VICON\USERDATA\INSTALL\rory3\rory3.ASF
:FULLY-SPECIFIED
:DEGREES
347
root 0.97856 21.7202 3.00586 -167.455 4.40099 -182.838
lowerback 12.8979 1.4362 -4.02518
upperback 1.28307 1.45773 -0.826789
thorax -5.95755 0.87821 1.133
lowerneck -22.6326 -1.40085 -7.32923
upperneck 36.4573 4.36217 -0.523681
head 17.0548 1.53404 2.22235
rclavicle -1.39646e-014 -1.78906e-015
rhumerus 7.61879 6.54681 -75.8264
rradius 67.247
rwrist -13.4399
rhand -25.5528 9.36268
rfingers 7.12502
rthumb 0.977647 -20.6148
lclavicle -1.39646e-014 -1.78906e-015
lhumerus 28.7597 -4.76833 79.0225
lradius 68.1902
lwrist 29.3831
lhand -21.0717 40.014
lfingers 7.12502
lthumb 5.30516 69.9276
rfemur -45.8002 -12.416 16.6166
rtibia 70.3364
rfoot -2.42563 -2.59458
rtoes -0.684766
lfemur -43.0386 -1.16726 -27.4878
ltibia 39.342
lfoot -16.8534 -0.0719398
ltoes 0.634567
348
root 0.963961 21.7529 2.99854 -167.537 4.42657 -182.853
lowerback 12.9705 1.35917 -3.8946
upperback 1.32873 1.37489 -0.853124
thorax -5.9414 0.835329 1.04577
lowerneck -22.8679 -1.36267 -7.38583
upperneck 36.5654 4.49112 -0.542103
head 17.1655 1.56578 2.25794
rclavicle -4.47266e-016 4.96962e-016
rhumerus 7.59053 6.84686 -75.7447
rradius 67.286
rwrist -13.579
rhand -25.5459 9.15746
rfingers 7.12502
rthumb 0.984291 -20.82
lclavicle -4.47266e-016 4.96962e-016
lhumerus 28.485 -4.60266 79.0779
lradius 68.4255
lwrist 29.3493
lhand -21.2158 39.8936
lfingers 7.12502
lthumb 5.16597 69.8106
rfemur -47.3497 -13.0451 16.7557
rtibia 72.798
rfoot -2.79691 -2.0759
rtoes -0.0788627
lfemur -42.6411 -1.43741 -27.4098
ltibia 38.7694
lfoot -16.5423 0.0501732
ltoes 0.0229365
349
root 0.95457 21.7836 2.9934 -167.651 4.48145 -182.932
lowerback 13.0217 1.31063 -3.92129
upperback 1.31366 1.30304 -0.86631
thorax -5.98262 0.801497 1.05858
lowerneck -22.74 -1.30488 -7.31804
upperneck 36.6337 4.67721 -0.747319
head 17.1754 1.63208 2.19587
rclavicle -1.15047e-014 7.7526e-015
rhumerus 7.33665 7.15179 -75.7067
rradius 67.404
rwrist -13.7519
rhand -25.6058 9.06803
rfingers 7.12502
rthumb 0.926431 -20.9097
lclavicle -1.15047e-014 7.7526e-015
lhumerus 28.0724 -4.46914 79.1417
lradius 68.6229
lwrist 29.2924
lhand -21.3016 39.9908
lfingers 7.12502
lthumb 5.08312 69.9098
rfemur -48.9198 -13.5534 16.8146
rtibia 75.2501
rfoot -3.1557 -1.64954
rtoes -0.514789
lfemur -42.1888 -1.58418 -27.444
ltibia 38.1759
lfoot -16.1767 0.180342
ltoes 0.24447
350
root 0.945368 21.8109 2.98651 -167.744 4.50505 -182.909
lowerback 13.0797 1.30016 -3.8041
upperback 1.3224 1.30352 -0.888693
thorax -6.00257 0.799374 0.967777
lowerneck -22.7214 -1.26579 -7.16443
upperneck 36.6921 4.80126 -0.972107
head 17.2121 1.67662 2.0982
rclavicle 7.85199e-015 -1.1778e-014
rhumerus 7.1226 7.29003 -75.6326
rradius 67.4873
rwrist -13.9695
rhand -25.5316 9.00835
rfingers 7.12502
rthumb 0.998128 -20.9691
lclavicle 7.85199e-015 -1.1778e-014
lhumerus 27.7927 -4.50775 79.153
lradius 68.7742
lwrist 29.1677
lhand -21.2593 39.9859
lfingers 7.12502
lthumb 5.12402 69.9039
rfemur -50.4446 -14.0269 16.9899
rtibia 77.6279
rfoot -3.54799 -1.30867
rtoes -0.908222
lfemur -41.7362 -1.77602 -27.354
ltibia 37.5936
lfoot -15.9121 0.359557
ltoes 0.328095
351
root 0.936469 21.8432 2.97668 -167.824 4.46612 -182.933
lowerback 13.1207 1.26774 -3.7169
upperback 1.29993 1.26809 -0.916273
thorax -6.04512 0.780078 0.89487
lowerneck -22.6249 -1.26268 -7.20183
upperneck 36.7705 4.85054 -0.960206
head 17.2281 1.70131 2.12332
rclavicle 1.21507e-014 -8.59744e-015
rhumerus 6.95918 7.47109 -75.5651
rradius 67.4008
rwrist -14.0052
rhand -25.5272 8.86204
rfingers 7.12502
rthumb 1.00237 -21.1153
lclavicle 1.21507e-014 -8.59744e-015
lhumerus 27.4588 -4.54569 79.1998
lradius 68.8541
lwrist 28.9969
lhand -21.2555 39.7682
lfingers 7.12502
lthumb 5.12766 69.6862
rfemur -51.9237 -14.5724 17.1068
rtibia 79.9193
rfoot -3.75556 -0.850446
rtoes -0.673363
lfemur -41.2825 -1.98329 -27.3345
ltibia 37.0354
lfoot -15.507 0.491052
ltoes 0.17609
352
root 0.929844 21.8736 2.96717 -167.912 4.40161 -182.996
lowerback 13.0964 1.23888 -3.68003
upperback 1.35337 1.24047 -0.952939
thorax -5.97191 0.765772 0.84172
lowerneck -22.6893 -1.27159 -7.13217
upperneck 36.8817 4.88795 -1.04596
head 17.3091 1.71384 2.08711
rclavicle -9.16894e-015 6.31141e-015
rhumerus 6.98989 7.58111 -75.4613
rradius 67.2658
rwrist -14.1386
rhand -25.5822 8.72445
rfingers 7.12502
rthumb 0.949269 -21.2532
lclavicle -9.16894e-015 6.31141e-015
lhumerus 27.2293 -4.59446 79.2374
lradius 68.9677
lwrist 28.9369
lhand -21.2019 39.3952
lfingers 7.12502
lthumb 5.17943 69.3119
rfemur -53.4176 -15.1214 17.2076
rtibia 82.1294
rfoot -3.79216 -0.464762
rtoes -0.589942
lfemur -40.8543 -2.11332 -27.412
ltibia 36.5234
lfoot -14.7706 0.593448
ltoes -0.946562
